<svg xmlns="http://www.w3.org/2000/svg" width="980" height="230" viewBox="0 0 980 230" role="img" aria-label="Agentic ML-engineering loop"><rect width="980" height="230" fill="#ffffff"/><rect x="0" y="0" width="980" height="6" fill="#06b6d4"/><text x="490" y="34" font-family="-apple-system,'Segoe UI',Helvetica,Arial,sans-serif" font-size="18" font-weight="800" fill="#0a2730" text-anchor="middle">Agentic ML-Engineering Loop</text><rect x="24" y="92" width="142" height="60" rx="10" fill="#f2fbfd" stroke="#bfe6ee" stroke-width="1.5"/><text x="95.0" y="118.0" font-family="-apple-system,'Segoe UI',Helvetica,Arial,sans-serif" font-size="13.5" font-weight="700" fill="#0a2730" text-anchor="middle">Propose</text><text x="95.0" y="136.0" font-family="-apple-system,'Segoe UI',Helvetica,Arial,sans-serif" font-size="11" font-weight="500" fill="#5b7c84" text-anchor="middle">LLM</text><line x1="166" y1="122" x2="179.0" y2="122.0" stroke="#3aa6bd" stroke-width="2"/><polygon points="186,122 179.0,126.2 179.0,117.8" fill="#3aa6bd"/><rect x="186" y="92" width="142" height="60" rx="10" fill="#f2fbfd" stroke="#bfe6ee" stroke-width="1.5"/><text x="257.0" y="118.0" font-family="-apple-system,'Segoe UI',Helvetica,Arial,sans-serif" font-size="13.5" font-weight="700" fill="#0a2730" text-anchor="middle">Code</text><text x="257.0" y="136.0" font-family="-apple-system,'Segoe UI',Helvetica,Arial,sans-serif" font-size="11" font-weight="500" fill="#5b7c84" text-anchor="middle">feature/pipeline</text><line x1="328" y1="122" x2="341.0" y2="122.0" stroke="#3aa6bd" stroke-width="2"/><polygon points="348,122 341.0,126.2 341.0,117.8" fill="#3aa6bd"/><rect x="348" y="92" width="142" height="60" rx="10" fill="#f2fbfd" stroke="#bfe6ee" stroke-width="1.5"/><text x="419.0" y="118.0" font-family="-apple-system,'Segoe UI',Helvetica,Arial,sans-serif" font-size="13.5" font-weight="700" fill="#0a2730" text-anchor="middle">Execute</text><text x="419.0" y="136.0" font-family="-apple-system,'Segoe UI',Helvetica,Arial,sans-serif" font-size="11" font-weight="500" fill="#5b7c84" text-anchor="middle">sandboxed</text><line x1="490" y1="122" x2="503.0" y2="122.0" stroke="#3aa6bd" stroke-width="2"/><polygon points="510,122 503.0,126.2 503.0,117.8" fill="#3aa6bd"/><rect x="510" y="92" width="142" height="60" rx="10" fill="#f2fbfd" stroke="#bfe6ee" stroke-width="1.5"/><text x="581.0" y="118.0" font-family="-apple-system,'Segoe UI',Helvetica,Arial,sans-serif" font-size="13.5" font-weight="700" fill="#0a2730" text-anchor="middle">Observe</text><text x="581.0" y="136.0" font-family="-apple-system,'Segoe UI',Helvetica,Arial,sans-serif" font-size="11" font-weight="500" fill="#5b7c84" text-anchor="middle">cross-validate</text><line x1="652" y1="122" x2="665.0" y2="122.0" stroke="#3aa6bd" stroke-width="2"/><polygon points="672,122 665.0,126.2 665.0,117.8" fill="#3aa6bd"/><rect x="672" y="92" width="142" height="60" rx="10" fill="#fff7e6" stroke="#f6a821" stroke-width="1.5"/><text x="743.0" y="118.0" font-family="-apple-system,'Segoe UI',Helvetica,Arial,sans-serif" font-size="13.5" font-weight="700" fill="#0a2730" text-anchor="middle">Verify</text><text x="743.0" y="136.0" font-family="-apple-system,'Segoe UI',Helvetica,Arial,sans-serif" font-size="11" font-weight="500" fill="#5b7c84" text-anchor="middle">judge ≠ ran</text><line x1="814" y1="122" x2="827.0" y2="122.0" stroke="#3aa6bd" stroke-width="2"/><polygon points="834,122 827.0,126.2 827.0,117.8" fill="#3aa6bd"/><rect x="834" y="92" width="142" height="60" rx="10" fill="#f2fbfd" stroke="#bfe6ee" stroke-width="1.5"/><text x="905.0" y="118.0" font-family="-apple-system,'Segoe UI',Helvetica,Arial,sans-serif" font-size="13.5" font-weight="700" fill="#0a2730" text-anchor="middle">Select</text><text x="905.0" y="136.0" font-family="-apple-system,'Segoe UI',Helvetica,Arial,sans-serif" font-size="11" font-weight="500" fill="#5b7c84" text-anchor="middle">best verified</text><path d="M743 152 C 743 208, 95 208, 95 152" stroke="#f6a821" stroke-width="2" fill="none" stroke-dasharray="5 4"/><polygon points="95,152 90,161 100,161" fill="#f6a821"/><text x="419.0" y="212" font-family="-apple-system,'Segoe UI',Helvetica,Arial,sans-serif" font-size="11.5" font-weight="700" fill="#f6a821" text-anchor="middle">reflect</text><text x="966" y="218" font-family="-apple-system,'Segoe UI',Helvetica,Arial,sans-serif" font-size="10.5" font-weight="600" fill="#5b7c84" text-anchor="end">✦ firefly-datascience</text></svg>
