<svg xmlns="http://www.w3.org/2000/svg" width="860" height="422" viewBox="0 0 860 422" role="img" aria-label="Firefly DataScience layered architecture"><rect width="860" height="422" fill="#ffffff"/><rect x="0" y="0" width="860" height="6" fill="#06b6d4"/><text x="430" y="34" font-family="-apple-system,'Segoe UI',Helvetica,Arial,sans-serif" font-size="18" font-weight="800" fill="#0a2730" text-anchor="middle">Firefly DataScience — Layered Architecture</text><rect x="120" y="60" width="620" height="56" rx="10" fill="#f2fbfd" stroke="#bfe6ee" stroke-width="1.5"/><text x="430.0" y="84.0" font-family="-apple-system,'Segoe UI',Helvetica,Arial,sans-serif" font-size="13.5" font-weight="700" fill="#0a2730" text-anchor="middle">Core</text><text x="430.0" y="102.0" font-family="-apple-system,'Segoe UI',Helvetica,Arial,sans-serif" font-size="11" font-weight="500" fill="#5b7c84" text-anchor="middle">config · DI · banner · plugin discovery · types</text><line x1="430" y1="116" x2="430.0" y2="123.0" stroke="#3aa6bd" stroke-width="2"/><polygon points="430,130 425.8,123.0 434.2,123.0" fill="#3aa6bd"/><rect x="120" y="130" width="620" height="56" rx="10" fill="#f2fbfd" stroke="#bfe6ee" stroke-width="1.5"/><text x="430.0" y="154.0" font-family="-apple-system,'Segoe UI',Helvetica,Arial,sans-serif" font-size="13.5" font-weight="700" fill="#0a2730" text-anchor="middle">Agent  (reused: fireflyframework-agentic)</text><text x="430.0" y="172.0" font-family="-apple-system,'Segoe UI',Helvetica,Arial,sans-serif" font-size="11" font-weight="500" fill="#5b7c84" text-anchor="middle">FireflyAgent · memory · tools · embeddings · vectorstores</text><line x1="430" y1="186" x2="430.0" y2="193.0" stroke="#3aa6bd" stroke-width="2"/><polygon points="430,200 425.8,193.0 434.2,193.0" fill="#3aa6bd"/><rect x="120" y="200" width="620" height="56" rx="10" fill="#fff7e6" stroke="#f6a821" stroke-width="1.5"/><text x="430.0" y="224.0" font-family="-apple-system,'Segoe UI',Helvetica,Arial,sans-serif" font-size="13.5" font-weight="700" fill="#0a2730" text-anchor="middle">DataScience</text><text x="430.0" y="242.0" font-family="-apple-system,'Segoe UI',Helvetica,Arial,sans-serif" font-size="11" font-weight="500" fill="#5b7c84" text-anchor="middle">datasets · features · models · evaluation · automl · serving</text><line x1="430" y1="256" x2="430.0" y2="263.0" stroke="#3aa6bd" stroke-width="2"/><polygon points="430,270 425.8,263.0 434.2,263.0" fill="#3aa6bd"/><rect x="120" y="270" width="620" height="56" rx="10" fill="#f2fbfd" stroke="#bfe6ee" stroke-width="1.5"/><text x="430.0" y="294.0" font-family="-apple-system,'Segoe UI',Helvetica,Arial,sans-serif" font-size="13.5" font-weight="700" fill="#0a2730" text-anchor="middle">Intelligence</text><text x="430.0" y="312.0" font-family="-apple-system,'Segoe UI',Helvetica,Arial,sans-serif" font-size="11" font-weight="500" fill="#5b7c84" text-anchor="middle">reasoning/search · validation · observability · security · cost-benefit gate</text><line x1="430" y1="326" x2="430.0" y2="333.0" stroke="#3aa6bd" stroke-width="2"/><polygon points="430,340 425.8,333.0 434.2,333.0" fill="#3aa6bd"/><rect x="120" y="340" width="620" height="56" rx="10" fill="#f2fbfd" stroke="#bfe6ee" stroke-width="1.5"/><text x="430.0" y="364.0" font-family="-apple-system,'Segoe UI',Helvetica,Arial,sans-serif" font-size="13.5" font-weight="700" fill="#0a2730" text-anchor="middle">Orchestration</text><text x="430.0" y="382.0" font-family="-apple-system,'Segoe UI',Helvetica,Arial,sans-serif" font-size="11" font-weight="500" fill="#5b7c84" text-anchor="middle">DAG pipelines · @workflow (HITL, budgets) · Airflow operators</text><text x="846" y="410" font-family="-apple-system,'Segoe UI',Helvetica,Arial,sans-serif" font-size="10.5" font-weight="600" fill="#5b7c84" text-anchor="end">✦ firefly-datascience</text></svg>
