<svg xmlns="http://www.w3.org/2000/svg" width="940" height="190" viewBox="0 0 940 190" role="img" aria-label="Classical AutoML pipeline"><rect width="940" height="190" fill="#ffffff"/><rect x="0" y="0" width="940" height="6" fill="#06b6d4"/><text x="470" y="34" font-family="-apple-system,'Segoe UI',Helvetica,Arial,sans-serif" font-size="18" font-weight="800" fill="#0a2730" text-anchor="middle">Classical AutoML Pipeline</text><rect x="30" y="90" width="160" height="64" rx="10" fill="#f2fbfd" stroke="#bfe6ee" stroke-width="1.5"/><text x="110.0" y="118.0" font-family="-apple-system,'Segoe UI',Helvetica,Arial,sans-serif" font-size="13.5" font-weight="700" fill="#0a2730" text-anchor="middle">Dataset</text><text x="110.0" y="136.0" font-family="-apple-system,'Segoe UI',Helvetica,Arial,sans-serif" font-size="11" font-weight="500" fill="#5b7c84" text-anchor="middle">load · validate</text><line x1="190" y1="122" x2="205.0" y2="122.0" stroke="#3aa6bd" stroke-width="2"/><polygon points="212,122 205.0,126.2 205.0,117.8" fill="#3aa6bd"/><rect x="212" y="90" width="160" height="64" rx="10" fill="#f2fbfd" stroke="#bfe6ee" stroke-width="1.5"/><text x="292.0" y="118.0" font-family="-apple-system,'Segoe UI',Helvetica,Arial,sans-serif" font-size="13.5" font-weight="700" fill="#0a2730" text-anchor="middle">Candidates</text><text x="292.0" y="136.0" font-family="-apple-system,'Segoe UI',Helvetica,Arial,sans-serif" font-size="11" font-weight="500" fill="#5b7c84" text-anchor="middle">trainers × params</text><line x1="372" y1="122" x2="387.0" y2="122.0" stroke="#3aa6bd" stroke-width="2"/><polygon points="394,122 387.0,126.2 387.0,117.8" fill="#3aa6bd"/><rect x="394" y="90" width="160" height="64" rx="10" fill="#fff7e6" stroke="#f6a821" stroke-width="1.5"/><text x="474.0" y="118.0" font-family="-apple-system,'Segoe UI',Helvetica,Arial,sans-serif" font-size="13.5" font-weight="700" fill="#0a2730" text-anchor="middle">Cross-Validate</text><text x="474.0" y="136.0" font-family="-apple-system,'Segoe UI',Helvetica,Arial,sans-serif" font-size="11" font-weight="500" fill="#5b7c84" text-anchor="middle">classical engine</text><line x1="554" y1="122" x2="569.0" y2="122.0" stroke="#3aa6bd" stroke-width="2"/><polygon points="576,122 569.0,126.2 569.0,117.8" fill="#3aa6bd"/><rect x="576" y="90" width="160" height="64" rx="10" fill="#f2fbfd" stroke="#bfe6ee" stroke-width="1.5"/><text x="656.0" y="118.0" font-family="-apple-system,'Segoe UI',Helvetica,Arial,sans-serif" font-size="13.5" font-weight="700" fill="#0a2730" text-anchor="middle">Select</text><text x="656.0" y="136.0" font-family="-apple-system,'Segoe UI',Helvetica,Arial,sans-serif" font-size="11" font-weight="500" fill="#5b7c84" text-anchor="middle">best by metric</text><line x1="736" y1="122" x2="751.0" y2="122.0" stroke="#3aa6bd" stroke-width="2"/><polygon points="758,122 751.0,126.2 751.0,117.8" fill="#3aa6bd"/><rect x="758" y="90" width="160" height="64" rx="10" fill="#f2fbfd" stroke="#bfe6ee" stroke-width="1.5"/><text x="838.0" y="118.0" font-family="-apple-system,'Segoe UI',Helvetica,Arial,sans-serif" font-size="13.5" font-weight="700" fill="#0a2730" text-anchor="middle">Fit + Serve</text><text x="838.0" y="136.0" font-family="-apple-system,'Segoe UI',Helvetica,Arial,sans-serif" font-size="11" font-weight="500" fill="#5b7c84" text-anchor="middle">leaderboard · model</text><text x="926" y="178" font-family="-apple-system,'Segoe UI',Helvetica,Arial,sans-serif" font-size="10.5" font-weight="600" fill="#5b7c84" text-anchor="end">✦ firefly-datascience</text></svg>
