<svg xmlns="http://www.w3.org/2000/svg" width="860" height="414" viewBox="0 0 860 414" role="img" aria-label="Entry-point auto-configuration flow"><rect width="860" height="414" fill="#ffffff"/><rect x="0" y="0" width="860" height="6" fill="#06b6d4"/><text x="430" y="34" font-family="-apple-system,'Segoe UI',Helvetica,Arial,sans-serif" font-size="18" font-weight="800" fill="#0a2730" text-anchor="middle">Entry-Point Auto-Configuration</text><rect x="250" y="60" width="360" height="54" rx="10" fill="#f2fbfd" stroke="#bfe6ee" stroke-width="1.5"/><text x="430.0" y="83.0" font-family="-apple-system,'Segoe UI',Helvetica,Arial,sans-serif" font-size="13.5" font-weight="700" fill="#0a2730" text-anchor="middle">Entry points</text><text x="430.0" y="101.0" font-family="-apple-system,'Segoe UI',Helvetica,Arial,sans-serif" font-size="11" font-weight="500" fill="#5b7c84" text-anchor="middle">the auto_configuration group</text><line x1="430" y1="114" x2="430.0" y2="121.0" stroke="#3aa6bd" stroke-width="2"/><polygon points="430,128 425.8,121.0 434.2,121.0" fill="#3aa6bd"/><rect x="250" y="128" width="360" height="54" rx="10" fill="#f2fbfd" stroke="#bfe6ee" stroke-width="1.5"/><text x="430.0" y="151.0" font-family="-apple-system,'Segoe UI',Helvetica,Arial,sans-serif" font-size="13.5" font-weight="700" fill="#0a2730" text-anchor="middle">Discover</text><text x="430.0" y="169.0" font-family="-apple-system,'Segoe UI',Helvetica,Arial,sans-serif" font-size="11" font-weight="500" fill="#5b7c84" text-anchor="middle">load adapter classes</text><line x1="430" y1="182" x2="430.0" y2="189.0" stroke="#3aa6bd" stroke-width="2"/><polygon points="430,196 425.8,189.0 434.2,189.0" fill="#3aa6bd"/><rect x="250" y="196" width="360" height="54" rx="10" fill="#fff7e6" stroke="#f6a821" stroke-width="1.5"/><text x="430.0" y="219.0" font-family="-apple-system,'Segoe UI',Helvetica,Arial,sans-serif" font-size="13.5" font-weight="700" fill="#0a2730" text-anchor="middle">Evaluate conditions</text><text x="430.0" y="237.0" font-family="-apple-system,'Segoe UI',Helvetica,Arial,sans-serif" font-size="11" font-weight="500" fill="#5b7c84" text-anchor="middle">@conditional_on_*</text><line x1="430" y1="250" x2="430.0" y2="257.0" stroke="#3aa6bd" stroke-width="2"/><polygon points="430,264 425.8,257.0 434.2,257.0" fill="#3aa6bd"/><rect x="250" y="264" width="360" height="54" rx="10" fill="#f2fbfd" stroke="#bfe6ee" stroke-width="1.5"/><text x="430.0" y="287.0" font-family="-apple-system,'Segoe UI',Helvetica,Arial,sans-serif" font-size="13.5" font-weight="700" fill="#0a2730" text-anchor="middle">Register beans</text><text x="430.0" y="305.0" font-family="-apple-system,'Segoe UI',Helvetica,Arial,sans-serif" font-size="11" font-weight="500" fill="#5b7c84" text-anchor="middle">DI container</text><line x1="430" y1="318" x2="430.0" y2="325.0" stroke="#3aa6bd" stroke-width="2"/><polygon points="430,332 425.8,325.0 434.2,325.0" fill="#3aa6bd"/><rect x="250" y="332" width="360" height="54" rx="10" fill="#f2fbfd" stroke="#bfe6ee" stroke-width="1.5"/><text x="430.0" y="355.0" font-family="-apple-system,'Segoe UI',Helvetica,Arial,sans-serif" font-size="13.5" font-weight="700" fill="#0a2730" text-anchor="middle">Wiring summary</text><text x="430.0" y="373.0" font-family="-apple-system,'Segoe UI',Helvetica,Arial,sans-serif" font-size="11" font-weight="500" fill="#5b7c84" text-anchor="middle">ready</text><text x="846" y="402" font-family="-apple-system,'Segoe UI',Helvetica,Arial,sans-serif" font-size="10.5" font-weight="600" fill="#5b7c84" text-anchor="end">✦ firefly-datascience</text></svg>
