<svg xmlns="http://www.w3.org/2000/svg" width="1280" height="320" viewBox="0 0 1280 320" role="img" aria-label="Firefly DataScience — AutoML that fuses GenAI with classical ML and Deep Learning, built on the Firefly Framework">
<defs>
  <linearGradient id="sky" x1="0" y1="0" x2="1280" y2="320" gradientUnits="userSpaceOnUse">
    <stop offset="0" stop-color="#06121a"/><stop offset="0.5" stop-color="#0a1b22"/><stop offset="1" stop-color="#071419"/>
  </linearGradient>
  <radialGradient id="glowA" cx="30%" cy="26%" r="62%">
    <stop offset="0" stop-color="#06b6d4" stop-opacity="0.26"/><stop offset="1" stop-color="#06b6d4" stop-opacity="0"/>
  </radialGradient>
  <radialGradient id="glowB" cx="88%" cy="80%" r="58%">
    <stop offset="0" stop-color="#22d3ee" stop-opacity="0.18"/><stop offset="1" stop-color="#22d3ee" stop-opacity="0"/>
  </radialGradient>
  <linearGradient id="wordmark" x1="82" y1="120" x2="720" y2="205" gradientUnits="userSpaceOnUse">
    <stop offset="0" stop-color="#d6fbff"/><stop offset="0.42" stop-color="#22d3ee"/><stop offset="1" stop-color="#0e7d97"/>
  </linearGradient>
  <linearGradient id="rule" x1="0" y1="0" x2="1" y2="0">
    <stop offset="0" stop-color="#67e8f9"/><stop offset="1" stop-color="#22d3ee" stop-opacity="0.12"/>
  </linearGradient>
  <radialGradient id="spark" cx="50%" cy="50%" r="50%">
    <stop offset="0" stop-color="#FFF9C1"/><stop offset="1" stop-color="#F68000"/>
  </radialGradient>
  <pattern id="grid" width="34" height="34" patternUnits="userSpaceOnUse">
    <circle cx="1" cy="1" r="1" fill="#3aa6bd" opacity="0.10"/>
  </pattern>
  <g id="node"><circle r="11" fill="#22d3ee" opacity="0.12"/><circle r="6" fill="#67e8f9" opacity="0.28"/><circle r="3" fill="#d6fbff"/></g>
  <g id="fly"><circle r="14" fill="#f6a821" opacity="0.10"/><circle r="8" fill="#ffc24a" opacity="0.22"/><circle r="3.6" fill="#ffd980" opacity="0.75"/><circle r="1.8" fill="#fff7e8"/></g>
</defs>
  <rect width="1280" height="320" fill="url(#sky)"/>
  <rect width="1280" height="320" fill="url(#grid)"/>
  <rect width="1280" height="320" fill="url(#glowA)"/>
  <rect width="1280" height="320" fill="url(#glowB)"/>
  <g stroke="#3fb6cf" stroke-width="1.1" fill="none" opacity="0.42">
    <path d="M948 92 L1052 138"/><path d="M1052 138 L988 214"/><path d="M1052 138 L1148 116"/>
    <path d="M1052 138 L1158 206"/><path d="M988 214 L1108 250"/><path d="M948 92 L1148 116"/>
  </g>
  <use href="#node" transform="translate(948,92)"/>
  <use href="#fly"  transform="translate(1052,138) scale(1.18)"/>
  <use href="#node" transform="translate(988,214)"/>
  <use href="#node" transform="translate(1148,116) scale(0.85)"/>
  <use href="#node" transform="translate(1158,206) scale(0.8)"/>
  <use href="#node" transform="translate(1108,250) scale(0.7)"/>
  <circle cx="556" cy="118" r="5" fill="url(#spark)" opacity="0.9"/>
  <g fill="#5fb3c6"><path transform="translate(88.00,88.00) scale(0.01300,-0.01300)" d="M211 0V542H24V667H563V542H373V0Z"/><path transform="translate(98.63,88.00) scale(0.01300,-0.01300)" d="M71 0V667H233V397H478V667H639V0H478V265H233V0Z"/><path transform="translate(110.86,88.00) scale(0.01300,-0.01300)" d="M71 0V667H528V542H233V397H489V271H233V125H528V0Z"/><path transform="translate(128.16,88.00) scale(0.01300,-0.01300)" d="M71 0V667H525V542H233V383H485V256H233V0Z"/><path transform="translate(138.57,88.00) scale(0.01300,-0.01300)" d="M71 0V667H233V0Z"/><path transform="translate(145.52,88.00) scale(0.01300,-0.01300)" d="M71 0V667H396Q509 667 573.0 614.5Q637 562 637 455Q637 411 619.0 368.5Q601 326 566.0 295.5Q531 265 478 256L468 311L671 0H465L298 291L370 230H233V0ZM233 349H369Q412 349 437.0 372.0Q462 395 462 448Q462 494 439.5 518.0Q417 542 376 542H233Z"/><path transform="translate(157.74,88.00) scale(0.01300,-0.01300)" d="M71 0V667H528V542H233V397H489V271H233V125H528V0Z"/><path transform="translate(168.45,88.00) scale(0.01300,-0.01300)" d="M71 0V667H525V542H233V383H485V256H233V0Z"/><path transform="translate(178.86,88.00) scale(0.01300,-0.01300)" d="M71 0V667H233V127H523V0Z"/><path transform="translate(187.85,88.00) scale(0.01300,-0.01300)" d="M274 0V288L21 667H220L410 348H335L508 667H669L413 248L436 334V0Z"/><path transform="translate(206.43,88.00) scale(0.01300,-0.01300)" d="M71 0V667H525V542H233V383H485V256H233V0Z"/><path transform="translate(216.84,88.00) scale(0.01300,-0.01300)" d="M71 0V667H396Q509 667 573.0 614.5Q637 562 637 455Q637 411 619.0 368.5Q601 326 566.0 295.5Q531 265 478 256L468 311L671 0H465L298 291L370 230H233V0ZM233 349H369Q412 349 437.0 372.0Q462 395 462 448Q462 494 439.5 518.0Q417 542 376 542H233Z"/><path transform="translate(229.06,88.00) scale(0.01300,-0.01300)" d="M13 0 265 667H442L678 0H512L299 629L378 636L166 0ZM155 144 188 263H491L506 144Z"/><path transform="translate(241.04,88.00) scale(0.01300,-0.01300)" d="M71 0V667H236L465 348L377 345L614 667H775V0H613V545L645 493L417 190L191 498L226 522V0Z"/><path transform="translate(255.04,88.00) scale(0.01300,-0.01300)" d="M71 0V667H528V542H233V397H489V271H233V125H528V0Z"/><path transform="translate(265.75,88.00) scale(0.01300,-0.01300)" d="M212 0 25 667H202L319 149H292L442 667H567L720 142H690L808 667H985L798 0H638L491 480H520L372 0Z"/><path transform="translate(281.36,88.00) scale(0.01300,-0.01300)" d="M368 -14Q269 -14 196.0 23.5Q123 61 82.5 138.0Q42 215 42 333Q42 504 128.0 592.0Q214 680 368 680Q467 680 540.5 642.5Q614 605 654.0 529.0Q694 453 694 334Q694 162 608.5 74.0Q523 -14 368 -14ZM368 119Q419 119 454.5 140.0Q490 161 508.5 208.5Q527 256 527 334Q527 413 508.5 460.0Q490 507 454.5 527.5Q419 548 368 548Q317 548 282.0 527.0Q247 506 228.5 459.0Q210 412 210 332Q210 253 228.5 206.5Q247 160 282.0 139.5Q317 119 368 119Z"/><path transform="translate(293.94,88.00) scale(0.01300,-0.01300)" d="M71 0V667H396Q509 667 573.0 614.5Q637 562 637 455Q637 411 619.0 368.5Q601 326 566.0 295.5Q531 265 478 256L468 311L671 0H465L298 291L370 230H233V0ZM233 349H369Q412 349 437.0 372.0Q462 395 462 448Q462 494 439.5 518.0Q417 542 376 542H233Z"/><path transform="translate(306.16,88.00) scale(0.01300,-0.01300)" d="M226 200 171 303 437 667H641ZM71 0V667H233V0ZM371 413 662 0H459L246 309Z"/></g>
  <g fill="url(#wordmark)"><path transform="translate(82.00,176.00) scale(0.07600,-0.07600)" d="M71 0V667H525V542H233V383H485V256H233V0Z"/><path transform="translate(124.32,176.00) scale(0.07600,-0.07600)" d="M69 0V499H218L219 0ZM66 575V690H220V575Z"/><path transform="translate(145.06,176.00) scale(0.07600,-0.07600)" d="M66 0V453Q80 465 116.0 480.5Q152 496 198.5 508.5Q245 521 292 521Q339 521 366.0 514.0Q393 507 407 496V387Q390 391 364.0 393.0Q338 395 310.0 395.5Q282 396 257.0 395.0Q232 394 215 391V0Z"/><path transform="translate(175.29,176.00) scale(0.07600,-0.07600)" d="M295 -15Q219 -15 160.5 16.5Q102 48 69.5 106.5Q37 165 37 246Q37 378 102.5 450.5Q168 523 290 523Q374 523 425.5 487.0Q477 451 501.0 382.0Q525 313 524 214H139L123 309H401L379 262Q378 343 356.0 376.0Q334 409 284 409Q256 409 233.5 395.0Q211 381 198.5 348.5Q186 316 186 259Q186 187 220.5 148.0Q255 109 331 109Q359 109 386.5 115.5Q414 122 438.0 131.0Q462 140 479 147V19Q443 4 398.5 -5.5Q354 -15 295 -15Z"/><path transform="translate(217.00,176.00) scale(0.07600,-0.07600)" d="M104 0V392H29V506H105V518Q105 567 115.0 602.0Q125 637 143.0 660.5Q161 684 185.0 697.0Q209 710 238.0 715.5Q267 721 298 721Q314 721 333.0 718.5Q352 716 364 711V579Q355 590 344.0 596.0Q333 602 314 602Q301 602 290.0 599.0Q279 596 271.0 589.0Q263 582 258.5 569.0Q254 556 254 536V506H364V392H253V0ZM602 0H454V697H602Z"/><path transform="translate(266.77,176.00) scale(0.07600,-0.07600)" d="M176 -196Q151 -196 127.0 -191.0Q103 -186 86 -178V-57Q102 -63 116.0 -65.5Q130 -68 145 -68Q170 -68 188.5 -56.5Q207 -45 219.0 -17.5Q231 10 238 57L241 -28L24 506H195L310 151H295L409 506H569L370 -8Q343 -78 311.5 -119.0Q280 -160 246.0 -178.0Q212 -196 176 -196Z"/><path transform="translate(330.82,176.00) scale(0.07600,-0.07600)" d="M71 0V667H339Q509 667 589.0 582.5Q669 498 669 333Q669 169 589.0 84.5Q509 0 339 0ZM233 125H320Q410 125 456.5 175.0Q503 225 503 333Q503 443 456.5 492.5Q410 542 320 542H233Z"/><path transform="translate(383.85,176.00) scale(0.07600,-0.07600)" d="M261 -15Q215 -15 174.5 -6.5Q134 2 103.5 21.5Q73 41 56.0 74.5Q39 108 39 158Q39 205 58.5 240.0Q78 275 118.0 294.0Q158 313 219 313Q253 313 285.0 306.0Q317 299 342.5 287.0Q368 275 383 261L389 189Q369 201 341.0 208.0Q313 215 281 215Q232 215 209.5 200.5Q187 186 187 155Q187 136 198.0 121.0Q209 106 227.5 98.0Q246 90 266 90Q317 90 337.5 97.0Q358 104 358 125V311Q358 357 328.5 377.5Q299 398 245 398Q201 398 156.5 382.5Q112 367 84 345V477Q110 493 164.5 507.0Q219 521 287 521Q311 521 340.0 517.0Q369 513 398.0 502.5Q427 492 451.5 472.0Q476 452 491.0 421.0Q506 390 506 344L505 105Q505 62 476.0 35.5Q447 9 392.5 -3.0Q338 -15 261 -15Z"/><path transform="translate(426.32,176.00) scale(0.07600,-0.07600)" d="M273 -20Q185 -20 142.0 21.5Q99 63 99 139V392H25V506H99V645H255V506H366V392H255V158Q255 132 266.0 119.5Q277 107 303 107Q318 107 336.0 113.0Q354 119 366 128V0Q345 -11 320.5 -15.5Q296 -20 273 -20Z"/><path transform="translate(456.71,176.00) scale(0.07600,-0.07600)" d="M261 -15Q215 -15 174.5 -6.5Q134 2 103.5 21.5Q73 41 56.0 74.5Q39 108 39 158Q39 205 58.5 240.0Q78 275 118.0 294.0Q158 313 219 313Q253 313 285.0 306.0Q317 299 342.5 287.0Q368 275 383 261L389 189Q369 201 341.0 208.0Q313 215 281 215Q232 215 209.5 200.5Q187 186 187 155Q187 136 198.0 121.0Q209 106 227.5 98.0Q246 90 266 90Q317 90 337.5 97.0Q358 104 358 125V311Q358 357 328.5 377.5Q299 398 245 398Q201 398 156.5 382.5Q112 367 84 345V477Q110 493 164.5 507.0Q219 521 287 521Q311 521 340.0 517.0Q369 513 398.0 502.5Q427 492 451.5 472.0Q476 452 491.0 421.0Q506 390 506 344L505 105Q505 62 476.0 35.5Q447 9 392.5 -3.0Q338 -15 261 -15Z"/><path transform="translate(499.18,176.00) scale(0.07600,-0.07600)" d="M295 -14Q244 -14 203.0 -9.0Q162 -4 127.0 6.0Q92 16 59 32V186Q105 149 163.0 130.0Q221 111 273 111Q319 111 343.5 128.5Q368 146 368 182Q368 209 345.5 225.5Q323 242 286.0 254.5Q249 267 203 283Q174 292 146.0 306.0Q118 320 96.0 341.5Q74 363 61.0 394.0Q48 425 48 470Q48 511 63.0 549.0Q78 587 109.5 617.0Q141 647 190.0 664.5Q239 682 305 682Q346 682 377.5 677.0Q409 672 438.0 662.5Q467 653 497 638V482Q474 501 445.5 517.5Q417 534 386.0 545.0Q355 556 321 557Q291 558 266.0 551.0Q241 544 227.0 528.5Q213 513 213 489Q213 461 230.0 445.0Q247 429 277.0 418.5Q307 408 344 396Q385 384 419.5 369.5Q454 355 480.0 333.0Q506 311 520.0 279.0Q534 247 534 202Q534 142 506.0 92.5Q478 43 425.0 14.5Q372 -14 295 -14Z"/><path transform="translate(542.04,176.00) scale(0.07600,-0.07600)" d="M303 -13Q249 -13 201.0 3.0Q153 19 116.0 51.0Q79 83 58.0 132.0Q37 181 37 246Q37 315 57.0 366.5Q77 418 112.5 452.0Q148 486 196.0 503.0Q244 520 302 520Q343 520 386.5 511.5Q430 503 463 488V360Q428 376 394.5 386.5Q361 397 326 397Q263 397 224.5 365.5Q186 334 186 263Q186 188 220.0 150.0Q254 112 333 112Q370 112 404.5 125.0Q439 138 464 152V25Q429 7 391.0 -3.0Q353 -13 303 -13Z"/><path transform="translate(579.19,176.00) scale(0.07600,-0.07600)" d="M69 0V499H218L219 0ZM66 575V690H220V575Z"/><path transform="translate(599.92,176.00) scale(0.07600,-0.07600)" d="M295 -15Q219 -15 160.5 16.5Q102 48 69.5 106.5Q37 165 37 246Q37 378 102.5 450.5Q168 523 290 523Q374 523 425.5 487.0Q477 451 501.0 382.0Q525 313 524 214H139L123 309H401L379 262Q378 343 356.0 376.0Q334 409 284 409Q256 409 233.5 395.0Q211 381 198.5 348.5Q186 316 186 259Q186 187 220.5 148.0Q255 109 331 109Q359 109 386.5 115.5Q414 122 438.0 131.0Q462 140 479 147V19Q443 4 398.5 -5.5Q354 -15 295 -15Z"/><path transform="translate(641.64,176.00) scale(0.07600,-0.07600)" d="M66 463Q85 473 116.0 483.5Q147 494 184.0 502.0Q221 510 258.5 515.0Q296 520 328 520Q396 520 444.0 502.5Q492 485 517.5 446.0Q543 407 543 340V0H394V310Q394 329 388.5 345.0Q383 361 372.0 372.5Q361 384 342.0 390.5Q323 397 296 397Q273 397 250.0 391.5Q227 386 215 380V0H66Z"/><path transform="translate(686.92,176.00) scale(0.07600,-0.07600)" d="M303 -13Q249 -13 201.0 3.0Q153 19 116.0 51.0Q79 83 58.0 132.0Q37 181 37 246Q37 315 57.0 366.5Q77 418 112.5 452.0Q148 486 196.0 503.0Q244 520 302 520Q343 520 386.5 511.5Q430 503 463 488V360Q428 376 394.5 386.5Q361 397 326 397Q263 397 224.5 365.5Q186 334 186 263Q186 188 220.0 150.0Q254 112 333 112Q370 112 404.5 125.0Q439 138 464 152V25Q429 7 391.0 -3.0Q353 -13 303 -13Z"/><path transform="translate(724.07,176.00) scale(0.07600,-0.07600)" d="M295 -15Q219 -15 160.5 16.5Q102 48 69.5 106.5Q37 165 37 246Q37 378 102.5 450.5Q168 523 290 523Q374 523 425.5 487.0Q477 451 501.0 382.0Q525 313 524 214H139L123 309H401L379 262Q378 343 356.0 376.0Q334 409 284 409Q256 409 233.5 395.0Q211 381 198.5 348.5Q186 316 186 259Q186 187 220.5 148.0Q255 109 331 109Q359 109 386.5 115.5Q414 122 438.0 131.0Q462 140 479 147V19Q443 4 398.5 -5.5Q354 -15 295 -15Z"/></g>
  <rect x="86" y="205" width="346" height="2.4" rx="1.2" fill="url(#rule)"/>
  <g fill="#dff6fb"><path transform="translate(86.00,248.00) scale(0.02150,-0.02150)" d="M15 0 271 667H418L663 0H522L304 621L364 627L147 0ZM150 163 183 267H493L505 163Z"/><path transform="translate(100.68,248.00) scale(0.02150,-0.02150)" d="M300 -15Q231 -15 179.0 7.5Q127 30 98.5 75.0Q70 120 70 190V504H197V204Q197 148 222.0 121.0Q247 94 301 94Q355 94 379.5 121.0Q404 148 404 204V504H525V190Q525 86 465.0 35.5Q405 -15 300 -15Z"/><path transform="translate(113.57,248.00) scale(0.02150,-0.02150)" d="M263 -16Q185 -16 144.0 22.5Q103 61 103 134V404H25V504H103V644H235V504H351V404H235V154Q235 124 246.5 109.0Q258 94 288 94Q304 94 321.5 99.0Q339 104 351 112V2Q332 -8 308.5 -12.0Q285 -16 263 -16Z"/><path transform="translate(122.25,248.00) scale(0.02150,-0.02150)" d="M292 -15Q167 -15 105.0 54.0Q43 123 43 253Q43 393 106.5 456.0Q170 519 291 519Q375 519 430.5 489.5Q486 460 514.0 401.0Q542 342 542 253Q542 123 477.0 54.0Q412 -15 292 -15ZM291 89Q335 89 362.5 109.0Q390 129 403.0 166.0Q416 203 416 253Q416 310 402.5 346.0Q389 382 361.5 399.0Q334 416 291 416Q247 416 220.0 398.0Q193 380 181.0 344.0Q169 308 169 253Q169 174 197.5 131.5Q226 89 291 89Z"/><path transform="translate(134.90,248.00) scale(0.02150,-0.02150)" d="M75 0V667H215L449 331L373 326L617 667H754V0H618V559L649 523L408 196L174 524L206 552V0Z"/><path transform="translate(152.83,248.00) scale(0.02150,-0.02150)" d="M75 0V667H212V111H516V0Z"/><path transform="translate(170.79,248.00) scale(0.02150,-0.02150)" d="M263 -16Q185 -16 144.0 22.5Q103 61 103 134V404H25V504H103V644H235V504H351V404H235V154Q235 124 246.5 109.0Q258 94 288 94Q304 94 321.5 99.0Q339 104 351 112V2Q332 -8 308.5 -12.0Q285 -16 263 -16Z"/><path transform="translate(179.46,248.00) scale(0.02150,-0.02150)" d="M70 0V710H198V417L151 447Q190 478 241.0 497.5Q292 517 343 517Q400 517 442.0 497.5Q484 478 507.5 435.5Q531 393 531 322V0H404V300Q404 355 377.5 382.5Q351 410 299 410Q272 410 245.0 402.0Q218 394 198 382L196 0Z"/><path transform="translate(192.49,248.00) scale(0.02150,-0.02150)" d="M259 -15Q216 -15 178.0 -7.0Q140 1 110.0 20.0Q80 39 62.5 71.5Q45 104 45 152Q45 204 66.0 239.5Q87 275 127.5 293.5Q168 312 227 312Q263 312 294.0 305.5Q325 299 350.0 287.5Q375 276 391 263L400 192Q379 206 346.5 214.5Q314 223 276 223Q223 223 197.0 206.0Q171 189 171 153Q171 129 185.0 112.0Q199 95 221.0 87.0Q243 79 267 79Q322 79 346.5 86.5Q371 94 371 119V317Q371 366 340.0 388.5Q309 411 253 411Q210 411 165.0 396.5Q120 382 92 359V474Q119 492 173.0 504.5Q227 517 289 517Q315 517 344.0 512.5Q373 508 400.0 497.0Q427 486 449.0 466.0Q471 446 484.0 416.5Q497 387 497 345L496 106Q496 60 466.5 33.5Q437 7 383.5 -4.0Q330 -15 259 -15Z"/><path transform="translate(204.78,248.00) scale(0.02150,-0.02150)" d="M263 -16Q185 -16 144.0 22.5Q103 61 103 134V404H25V504H103V644H235V504H351V404H235V154Q235 124 246.5 109.0Q258 94 288 94Q304 94 321.5 99.0Q339 104 351 112V2Q332 -8 308.5 -12.0Q285 -16 263 -16Z"/><path transform="translate(219.58,248.00) scale(0.02150,-0.02150)" d="M110 0V404H33V504H111V520Q111 571 122.0 606.0Q133 641 151.5 663.5Q170 686 193.5 697.5Q217 709 243.0 713.5Q269 718 295 718Q311 718 328.0 715.5Q345 713 356 709V597Q347 605 337.0 609.5Q327 614 310 614Q296 614 283.0 611.5Q270 609 260.0 600.5Q250 592 244.0 576.0Q238 560 238 534V504H356V404H237V0Z"/><path transform="translate(228.04,248.00) scale(0.02150,-0.02150)" d="M300 -15Q231 -15 179.0 7.5Q127 30 98.5 75.0Q70 120 70 190V504H197V204Q197 148 222.0 121.0Q247 94 301 94Q355 94 379.5 121.0Q404 148 404 204V504H525V190Q525 86 465.0 35.5Q405 -15 300 -15Z"/><path transform="translate(240.93,248.00) scale(0.02150,-0.02150)" d="M218 -15Q164 -15 126.0 -3.5Q88 8 53 24V139Q76 124 101.5 110.5Q127 97 156.5 89.0Q186 81 221 81Q260 81 279.5 96.0Q299 111 299 134Q299 154 284.0 165.5Q269 177 245.0 185.0Q221 193 194 201Q169 207 143.5 217.0Q118 227 97.0 244.0Q76 261 63.5 287.5Q51 314 51 352Q51 397 69.0 428.0Q87 459 116.5 478.5Q146 498 180.5 506.5Q215 515 248 514Q306 513 341.0 501.0Q376 489 407 472V368Q372 387 339.5 402.5Q307 418 264 418Q225 418 203.5 404.5Q182 391 182 367Q182 346 195.0 333.5Q208 321 229.5 313.5Q251 306 276 299Q301 292 327.5 283.5Q354 275 377.5 259.5Q401 244 415.5 217.0Q430 190 430 147Q429 88 398.5 52.5Q368 17 320.0 1.0Q272 -15 218 -15Z"/><path transform="translate(251.24,248.00) scale(0.02150,-0.02150)" d="M293 -15Q218 -15 161.5 16.0Q105 47 74.0 105.5Q43 164 43 247Q43 379 106.5 449.0Q170 519 286 519Q368 519 419.0 483.0Q470 447 493.0 380.0Q516 313 515 221H125L116 307H414L390 271Q388 350 362.5 384.5Q337 419 281 419Q247 419 222.0 403.5Q197 388 183.5 352.0Q170 316 170 253Q170 175 206.5 134.0Q243 93 319 93Q350 93 378.5 99.0Q407 105 431.5 114.5Q456 124 474 132V19Q438 4 394.0 -5.5Q350 -15 293 -15Z"/><path transform="translate(263.34,248.00) scale(0.02150,-0.02150)" d="M218 -15Q164 -15 126.0 -3.5Q88 8 53 24V139Q76 124 101.5 110.5Q127 97 156.5 89.0Q186 81 221 81Q260 81 279.5 96.0Q299 111 299 134Q299 154 284.0 165.5Q269 177 245.0 185.0Q221 193 194 201Q169 207 143.5 217.0Q118 227 97.0 244.0Q76 261 63.5 287.5Q51 314 51 352Q51 397 69.0 428.0Q87 459 116.5 478.5Q146 498 180.5 506.5Q215 515 248 514Q306 513 341.0 501.0Q376 489 407 472V368Q372 387 339.5 402.5Q307 418 264 418Q225 418 203.5 404.5Q182 391 182 367Q182 346 195.0 333.5Q208 321 229.5 313.5Q251 306 276 299Q301 292 327.5 283.5Q354 275 377.5 259.5Q401 244 415.5 217.0Q430 190 430 147Q429 88 398.5 52.5Q368 17 320.0 1.0Q272 -15 218 -15Z"/><path transform="translate(279.77,248.00) scale(0.02150,-0.02150)" d="M369 -12Q269 -12 197.0 24.0Q125 60 86.5 136.5Q48 213 48 334Q48 453 86.5 530.0Q125 607 197.0 643.5Q269 680 368 680Q429 680 487.0 668.0Q545 656 599 633V506Q542 535 491.0 553.0Q440 571 385 571Q320 571 275.5 548.0Q231 525 208.5 473.0Q186 421 186 334Q186 248 209.0 196.0Q232 144 275.5 120.5Q319 97 380 97Q411 97 438.5 101.5Q466 106 490 115V254H365V364H626V54Q566 22 501.0 5.0Q436 -12 369 -12Z"/><path transform="translate(294.95,248.00) scale(0.02150,-0.02150)" d="M293 -15Q218 -15 161.5 16.0Q105 47 74.0 105.5Q43 164 43 247Q43 379 106.5 449.0Q170 519 286 519Q368 519 419.0 483.0Q470 447 493.0 380.0Q516 313 515 221H125L116 307H414L390 271Q388 350 362.5 384.5Q337 419 281 419Q247 419 222.0 403.5Q197 388 183.5 352.0Q170 316 170 253Q170 175 206.5 134.0Q243 93 319 93Q350 93 378.5 99.0Q407 105 431.5 114.5Q456 124 474 132V19Q438 4 394.0 -5.5Q350 -15 293 -15Z"/><path transform="translate(307.04,248.00) scale(0.02150,-0.02150)" d="M70 462Q91 473 120.0 483.0Q149 493 183.0 500.5Q217 508 252.0 512.5Q287 517 318 517Q387 517 433.5 498.5Q480 480 504.0 440.0Q528 400 528 336V0H401V314Q401 333 396.0 350.5Q391 368 379.0 381.5Q367 395 346.0 402.5Q325 410 292 410Q267 410 241.5 405.0Q216 400 197 392V0H70Z"/><path transform="translate(320.00,248.00) scale(0.02150,-0.02150)" d="M15 0 271 667H418L663 0H522L304 621L364 627L147 0ZM150 163 183 267H493L505 163Z"/><path transform="translate(334.68,248.00) scale(0.02150,-0.02150)" d="M75 0V667H212V0Z"/><path transform="translate(347.07,248.00) scale(0.02150,-0.02150)" d="M196 0 28 504H164L284 85L245 81L360 504H458L571 93H540L658 504H791L623 0H506L396 360L418 354L313 0Z"/><path transform="translate(364.75,248.00) scale(0.02150,-0.02150)" d="M73 0V499H200L201 0ZM70 579V684H203V579Z"/><path transform="translate(370.72,248.00) scale(0.02150,-0.02150)" d="M263 -16Q185 -16 144.0 22.5Q103 61 103 134V404H25V504H103V644H235V504H351V404H235V154Q235 124 246.5 109.0Q258 94 288 94Q304 94 321.5 99.0Q339 104 351 112V2Q332 -8 308.5 -12.0Q285 -16 263 -16Z"/><path transform="translate(379.40,248.00) scale(0.02150,-0.02150)" d="M70 0V710H198V417L151 447Q190 478 241.0 497.5Q292 517 343 517Q400 517 442.0 497.5Q484 478 507.5 435.5Q531 393 531 322V0H404V300Q404 355 377.5 382.5Q351 410 299 410Q272 410 245.0 402.0Q218 394 198 382L196 0Z"/><path transform="translate(398.54,248.00) scale(0.02150,-0.02150)" d="M299 -11Q249 -11 203.0 3.5Q157 18 121.0 48.5Q85 79 64.0 128.5Q43 178 43 247Q43 320 63.0 371.0Q83 422 118.0 454.5Q153 487 199.5 502.0Q246 517 298 517Q339 517 380.5 509.0Q422 501 456 486V375Q421 390 387.5 399.5Q354 409 318 409Q247 409 208.0 374.0Q169 339 169 260Q169 177 205.0 137.5Q241 98 323 98Q360 98 394.5 109.0Q429 120 457 134V24Q422 7 384.0 -2.0Q346 -11 299 -11Z"/><path transform="translate(409.37,248.00) scale(0.02150,-0.02150)" d="M196 0H70V695H196Z"/><path transform="translate(415.19,248.00) scale(0.02150,-0.02150)" d="M259 -15Q216 -15 178.0 -7.0Q140 1 110.0 20.0Q80 39 62.5 71.5Q45 104 45 152Q45 204 66.0 239.5Q87 275 127.5 293.5Q168 312 227 312Q263 312 294.0 305.5Q325 299 350.0 287.5Q375 276 391 263L400 192Q379 206 346.5 214.5Q314 223 276 223Q223 223 197.0 206.0Q171 189 171 153Q171 129 185.0 112.0Q199 95 221.0 87.0Q243 79 267 79Q322 79 346.5 86.5Q371 94 371 119V317Q371 366 340.0 388.5Q309 411 253 411Q210 411 165.0 396.5Q120 382 92 359V474Q119 492 173.0 504.5Q227 517 289 517Q315 517 344.0 512.5Q373 508 400.0 497.0Q427 486 449.0 466.0Q471 446 484.0 416.5Q497 387 497 345L496 106Q496 60 466.5 33.5Q437 7 383.5 -4.0Q330 -15 259 -15Z"/><path transform="translate(427.48,248.00) scale(0.02150,-0.02150)" d="M218 -15Q164 -15 126.0 -3.5Q88 8 53 24V139Q76 124 101.5 110.5Q127 97 156.5 89.0Q186 81 221 81Q260 81 279.5 96.0Q299 111 299 134Q299 154 284.0 165.5Q269 177 245.0 185.0Q221 193 194 201Q169 207 143.5 217.0Q118 227 97.0 244.0Q76 261 63.5 287.5Q51 314 51 352Q51 397 69.0 428.0Q87 459 116.5 478.5Q146 498 180.5 506.5Q215 515 248 514Q306 513 341.0 501.0Q376 489 407 472V368Q372 387 339.5 402.5Q307 418 264 418Q225 418 203.5 404.5Q182 391 182 367Q182 346 195.0 333.5Q208 321 229.5 313.5Q251 306 276 299Q301 292 327.5 283.5Q354 275 377.5 259.5Q401 244 415.5 217.0Q430 190 430 147Q429 88 398.5 52.5Q368 17 320.0 1.0Q272 -15 218 -15Z"/><path transform="translate(437.79,248.00) scale(0.02150,-0.02150)" d="M218 -15Q164 -15 126.0 -3.5Q88 8 53 24V139Q76 124 101.5 110.5Q127 97 156.5 89.0Q186 81 221 81Q260 81 279.5 96.0Q299 111 299 134Q299 154 284.0 165.5Q269 177 245.0 185.0Q221 193 194 201Q169 207 143.5 217.0Q118 227 97.0 244.0Q76 261 63.5 287.5Q51 314 51 352Q51 397 69.0 428.0Q87 459 116.5 478.5Q146 498 180.5 506.5Q215 515 248 514Q306 513 341.0 501.0Q376 489 407 472V368Q372 387 339.5 402.5Q307 418 264 418Q225 418 203.5 404.5Q182 391 182 367Q182 346 195.0 333.5Q208 321 229.5 313.5Q251 306 276 299Q301 292 327.5 283.5Q354 275 377.5 259.5Q401 244 415.5 217.0Q430 190 430 147Q429 88 398.5 52.5Q368 17 320.0 1.0Q272 -15 218 -15Z"/><path transform="translate(448.11,248.00) scale(0.02150,-0.02150)" d="M73 0V499H200L201 0ZM70 579V684H203V579Z"/><path transform="translate(454.08,248.00) scale(0.02150,-0.02150)" d="M299 -11Q249 -11 203.0 3.5Q157 18 121.0 48.5Q85 79 64.0 128.5Q43 178 43 247Q43 320 63.0 371.0Q83 422 118.0 454.5Q153 487 199.5 502.0Q246 517 298 517Q339 517 380.5 509.0Q422 501 456 486V375Q421 390 387.5 399.5Q354 409 318 409Q247 409 208.0 374.0Q169 339 169 260Q169 177 205.0 137.5Q241 98 323 98Q360 98 394.5 109.0Q429 120 457 134V24Q422 7 384.0 -2.0Q346 -11 299 -11Z"/><path transform="translate(464.90,248.00) scale(0.02150,-0.02150)" d="M259 -15Q216 -15 178.0 -7.0Q140 1 110.0 20.0Q80 39 62.5 71.5Q45 104 45 152Q45 204 66.0 239.5Q87 275 127.5 293.5Q168 312 227 312Q263 312 294.0 305.5Q325 299 350.0 287.5Q375 276 391 263L400 192Q379 206 346.5 214.5Q314 223 276 223Q223 223 197.0 206.0Q171 189 171 153Q171 129 185.0 112.0Q199 95 221.0 87.0Q243 79 267 79Q322 79 346.5 86.5Q371 94 371 119V317Q371 366 340.0 388.5Q309 411 253 411Q210 411 165.0 396.5Q120 382 92 359V474Q119 492 173.0 504.5Q227 517 289 517Q315 517 344.0 512.5Q373 508 400.0 497.0Q427 486 449.0 466.0Q471 446 484.0 416.5Q497 387 497 345L496 106Q496 60 466.5 33.5Q437 7 383.5 -4.0Q330 -15 259 -15Z"/><path transform="translate(477.19,248.00) scale(0.02150,-0.02150)" d="M196 0H70V695H196Z"/><path transform="translate(489.13,248.00) scale(0.02150,-0.02150)" d="M75 0V667H215L449 331L373 326L617 667H754V0H618V559L649 523L408 196L174 524L206 552V0Z"/><path transform="translate(507.06,248.00) scale(0.02150,-0.02150)" d="M75 0V667H212V111H516V0Z"/><path transform="translate(525.02,248.00) scale(0.02150,-0.02150)" d="M481 0 172 373Q151 400 130.0 436.5Q109 473 109 510Q109 555 134.5 593.0Q160 631 205.0 654.5Q250 678 305 678Q361 678 402.5 657.5Q444 637 467.5 601.0Q491 565 491 520Q491 477 471.5 446.5Q452 416 417.0 390.5Q382 365 335 337L285 409Q321 429 339.5 445.5Q358 462 365.0 477.5Q372 493 372 508Q372 536 353.5 553.0Q335 570 306 570Q278 570 258.5 551.5Q239 533 239 507Q239 495 248.0 478.5Q257 462 269.0 446.0Q281 430 291 418L638 0ZM257 -11Q205 -11 165.0 5.0Q125 21 98.5 48.0Q72 75 58.5 108.0Q45 141 45 174Q45 208 59.0 243.5Q73 279 107.0 313.0Q141 347 200 375L278 309Q243 289 221.5 266.5Q200 244 190.5 223.0Q181 202 181 185Q181 173 185.0 157.5Q189 142 199.0 127.0Q209 112 229.0 102.5Q249 93 280 93Q315 93 348.0 112.5Q381 132 401 155L466 77Q444 53 415.0 33.0Q386 13 347.0 1.0Q308 -11 257 -11ZM453 203Q466 221 474.0 241.0Q482 261 486.5 277.5Q491 294 493 300H590Q584 265 565.0 220.0Q546 175 520 134Z"/><path transform="translate(545.68,248.00) scale(0.02150,-0.02150)" d="M75 0V667H326Q492 667 571.5 583.0Q651 499 651 334Q651 169 571.5 84.5Q492 0 326 0ZM211 109H311Q412 109 462.0 163.0Q512 217 512 334Q512 451 462.0 505.0Q412 559 311 559H211Z"/><path transform="translate(560.81,248.00) scale(0.02150,-0.02150)" d="M293 -15Q218 -15 161.5 16.0Q105 47 74.0 105.5Q43 164 43 247Q43 379 106.5 449.0Q170 519 286 519Q368 519 419.0 483.0Q470 447 493.0 380.0Q516 313 515 221H125L116 307H414L390 271Q388 350 362.5 384.5Q337 419 281 419Q247 419 222.0 403.5Q197 388 183.5 352.0Q170 316 170 253Q170 175 206.5 134.0Q243 93 319 93Q350 93 378.5 99.0Q407 105 431.5 114.5Q456 124 474 132V19Q438 4 394.0 -5.5Q350 -15 293 -15Z"/><path transform="translate(572.91,248.00) scale(0.02150,-0.02150)" d="M293 -15Q218 -15 161.5 16.0Q105 47 74.0 105.5Q43 164 43 247Q43 379 106.5 449.0Q170 519 286 519Q368 519 419.0 483.0Q470 447 493.0 380.0Q516 313 515 221H125L116 307H414L390 271Q388 350 362.5 384.5Q337 419 281 419Q247 419 222.0 403.5Q197 388 183.5 352.0Q170 316 170 253Q170 175 206.5 134.0Q243 93 319 93Q350 93 378.5 99.0Q407 105 431.5 114.5Q456 124 474 132V19Q438 4 394.0 -5.5Q350 -15 293 -15Z"/><path transform="translate(585.01,248.00) scale(0.02150,-0.02150)" d="M321 -14Q304 -14 275.5 -10.5Q247 -7 217.5 3.0Q188 13 167 32L195 73V-191H70V402Q70 434 89.5 456.0Q109 478 141.5 492.0Q174 506 215.0 512.5Q256 519 300 519Q371 519 427.5 493.5Q484 468 516.5 408.5Q549 349 549 245Q549 167 522.0 108.5Q495 50 444.5 18.0Q394 -14 321 -14ZM290 90Q334 90 363.0 107.0Q392 124 406.5 159.0Q421 194 421 249Q421 297 410.5 333.5Q400 370 372.5 390.5Q345 411 295 411Q246 411 220.5 401.0Q195 391 195 373V115Q218 102 243.0 96.0Q268 90 290 90Z"/><path transform="translate(603.95,248.00) scale(0.02150,-0.02150)" d="M75 0V667H212V111H516V0Z"/><path transform="translate(615.79,248.00) scale(0.02150,-0.02150)" d="M293 -15Q218 -15 161.5 16.0Q105 47 74.0 105.5Q43 164 43 247Q43 379 106.5 449.0Q170 519 286 519Q368 519 419.0 483.0Q470 447 493.0 380.0Q516 313 515 221H125L116 307H414L390 271Q388 350 362.5 384.5Q337 419 281 419Q247 419 222.0 403.5Q197 388 183.5 352.0Q170 316 170 253Q170 175 206.5 134.0Q243 93 319 93Q350 93 378.5 99.0Q407 105 431.5 114.5Q456 124 474 132V19Q438 4 394.0 -5.5Q350 -15 293 -15Z"/><path transform="translate(627.89,248.00) scale(0.02150,-0.02150)" d="M259 -15Q216 -15 178.0 -7.0Q140 1 110.0 20.0Q80 39 62.5 71.5Q45 104 45 152Q45 204 66.0 239.5Q87 275 127.5 293.5Q168 312 227 312Q263 312 294.0 305.5Q325 299 350.0 287.5Q375 276 391 263L400 192Q379 206 346.5 214.5Q314 223 276 223Q223 223 197.0 206.0Q171 189 171 153Q171 129 185.0 112.0Q199 95 221.0 87.0Q243 79 267 79Q322 79 346.5 86.5Q371 94 371 119V317Q371 366 340.0 388.5Q309 411 253 411Q210 411 165.0 396.5Q120 382 92 359V474Q119 492 173.0 504.5Q227 517 289 517Q315 517 344.0 512.5Q373 508 400.0 497.0Q427 486 449.0 466.0Q471 446 484.0 416.5Q497 387 497 345L496 106Q496 60 466.5 33.5Q437 7 383.5 -4.0Q330 -15 259 -15Z"/><path transform="translate(640.18,248.00) scale(0.02150,-0.02150)" d="M70 0V455Q84 465 119.5 479.5Q155 494 202.0 505.5Q249 517 297 517Q333 517 354.5 511.5Q376 506 389 498V402Q369 405 343.5 407.0Q318 409 291.5 408.5Q265 408 240.5 406.0Q216 404 197 401V0Z"/><path transform="translate(649.18,248.00) scale(0.02150,-0.02150)" d="M70 462Q91 473 120.0 483.0Q149 493 183.0 500.5Q217 508 252.0 512.5Q287 517 318 517Q387 517 433.5 498.5Q480 480 504.0 440.0Q528 400 528 336V0H401V314Q401 333 396.0 350.5Q391 368 379.0 381.5Q367 395 346.0 402.5Q325 410 292 410Q267 410 241.5 405.0Q216 400 197 392V0H70Z"/><path transform="translate(662.14,248.00) scale(0.02150,-0.02150)" d="M73 0V499H200L201 0ZM70 579V684H203V579Z"/><path transform="translate(668.11,248.00) scale(0.02150,-0.02150)" d="M70 462Q91 473 120.0 483.0Q149 493 183.0 500.5Q217 508 252.0 512.5Q287 517 318 517Q387 517 433.5 498.5Q480 480 504.0 440.0Q528 400 528 336V0H401V314Q401 333 396.0 350.5Q391 368 379.0 381.5Q367 395 346.0 402.5Q325 410 292 410Q267 410 241.5 405.0Q216 400 197 392V0H70Z"/><path transform="translate(681.07,248.00) scale(0.02150,-0.02150)" d="M267 -15Q196 -12 146.0 16.5Q96 45 69.5 100.5Q43 156 43 237Q43 322 64.0 376.5Q85 431 122.5 461.5Q160 492 210.5 504.5Q261 517 319 517Q377 517 422.5 502.0Q468 487 494.5 457.5Q521 428 521 384V-10Q521 -57 506.5 -94.5Q492 -132 461.5 -159.0Q431 -186 384.5 -200.5Q338 -215 275 -215Q215 -215 171.0 -206.0Q127 -197 101 -186V-72Q116 -78 142.5 -86.5Q169 -95 202.0 -101.0Q235 -107 268 -107Q321 -107 348.5 -93.0Q376 -79 386.0 -56.5Q396 -34 396 -6V73L425 51Q408 32 383.5 17.0Q359 2 329.5 -6.5Q300 -15 267 -15ZM294 84Q322 84 348.0 90.5Q374 97 396 110V357Q396 381 383.5 392.5Q371 404 350.5 408.5Q330 413 307 413Q253 413 223.5 391.0Q194 369 182.5 330.0Q171 291 171 243Q171 171 203.0 127.5Q235 84 294 84Z"/><path transform="translate(693.76,248.00) scale(0.02150,-0.02150)" d="M65 0V129H197V0Z"/></g>
  <g fill="#7fa9b1"><path transform="translate(86.00,280.00) scale(0.01500,-0.01500)" d="M85 0V667H157V367H512V667H584V0H512V299H157V0Z"/><path transform="translate(96.14,280.00) scale(0.01500,-0.01500)" d="M286 -15Q215 -15 163.0 14.5Q111 44 83.0 103.0Q55 162 55 250Q55 379 113.5 443.5Q172 508 274 508Q354 508 402.5 472.0Q451 436 472.0 375.0Q493 314 492 237H91L96 303H445L417 293Q414 368 379.5 405.0Q345 442 274 442Q225 442 192.5 424.0Q160 406 144.0 361.5Q128 317 128 237Q128 146 170.5 98.5Q213 51 290 51Q327 51 358.0 56.5Q389 62 415.0 72.0Q441 82 461 94V20Q425 3 381.5 -6.0Q338 -15 286 -15Z"/><path transform="translate(104.44,280.00) scale(0.01500,-0.01500)" d="M280 218 116 0H35L237 272ZM497 0H405L40 499H131ZM247 279 412 499H495L287 218Z"/><path transform="translate(112.52,280.00) scale(0.01500,-0.01500)" d="M252 -15Q219 -15 185.5 -8.0Q152 -1 123.5 16.0Q95 33 77.5 62.5Q60 92 60 137Q60 199 83.5 236.5Q107 274 148.5 290.5Q190 307 244 307Q285 307 315.0 302.0Q345 297 368.5 287.5Q392 278 411 266L425 200Q402 217 358.5 229.5Q315 242 263 242Q200 242 166.0 218.0Q132 194 132 148Q132 111 152.5 89.0Q173 67 204.5 58.0Q236 49 269 49Q334 49 367.5 58.5Q401 68 401 102V331Q401 389 367.0 416.0Q333 443 270 443Q230 443 185.5 431.5Q141 420 109 395V467Q140 487 192.0 497.5Q244 508 293 508Q326 508 354.0 501.5Q382 495 404.0 482.5Q426 470 441.5 450.5Q457 431 465.5 405.5Q474 380 474 348V106Q474 53 442.5 27.0Q411 1 360.5 -7.0Q310 -15 252 -15Z"/><path transform="translate(120.93,280.00) scale(0.01500,-0.01500)" d="M283 -15Q206 -15 155.5 15.5Q105 46 80.0 102.5Q55 159 55 236Q55 322 78.0 375.5Q101 429 137.5 457.5Q174 486 217.5 496.5Q261 507 302 507Q349 507 391.5 494.5Q434 482 461.5 455.0Q489 428 489 383V-21Q489 -51 480.0 -82.0Q471 -113 447.5 -139.5Q424 -166 381.5 -182.0Q339 -198 272 -198Q229 -198 193.0 -190.0Q157 -182 130 -175V-107Q146 -111 166.5 -116.5Q187 -122 211.5 -126.0Q236 -130 264 -130Q332 -130 364.5 -113.5Q397 -97 407.0 -72.5Q417 -48 417 -23V50L442 25Q423 15 394.0 6.0Q365 -3 335.0 -9.0Q305 -15 283 -15ZM283 51Q315 51 350.5 59.5Q386 68 417 86V373Q417 401 401.5 415.5Q386 430 360.0 435.5Q334 441 304 441Q231 441 194.0 412.5Q157 384 144.0 337.0Q131 290 131 236Q131 154 166.0 102.5Q201 51 283 51Z"/><path transform="translate(129.56,280.00) scale(0.01500,-0.01500)" d="M285 -15Q168 -15 111.5 54.5Q55 124 55 248Q55 378 114.5 443.0Q174 508 283 508Q364 508 415.0 475.5Q466 443 490.0 384.5Q514 326 514 248Q514 125 454.5 55.0Q395 -15 285 -15ZM284 51Q345 51 379.0 77.5Q413 104 427.5 148.5Q442 193 442 248Q442 307 427.0 350.5Q412 394 377.5 418.0Q343 442 284 442Q224 442 190.0 416.0Q156 390 141.5 346.5Q127 303 127 248Q127 160 162.0 105.5Q197 51 284 51Z"/><path transform="translate(138.20,280.00) scale(0.01500,-0.01500)" d="M80 459Q104 471 129.5 480.5Q155 490 181.5 496.0Q208 502 235.5 505.0Q263 508 291 508Q364 508 407.0 486.5Q450 465 469.5 424.0Q489 383 489 325V0H417V325Q417 343 412.5 363.0Q408 383 395.0 401.5Q382 420 355.0 431.5Q328 443 283 443Q252 443 219.0 438.0Q186 433 152 423V0H80Z"/><path transform="translate(146.83,280.00) scale(0.01500,-0.01500)" d="M252 -15Q219 -15 185.5 -8.0Q152 -1 123.5 16.0Q95 33 77.5 62.5Q60 92 60 137Q60 199 83.5 236.5Q107 274 148.5 290.5Q190 307 244 307Q285 307 315.0 302.0Q345 297 368.5 287.5Q392 278 411 266L425 200Q402 217 358.5 229.5Q315 242 263 242Q200 242 166.0 218.0Q132 194 132 148Q132 111 152.5 89.0Q173 67 204.5 58.0Q236 49 269 49Q334 49 367.5 58.5Q401 68 401 102V331Q401 389 367.0 416.0Q333 443 270 443Q230 443 185.5 431.5Q141 420 109 395V467Q140 487 192.0 497.5Q244 508 293 508Q326 508 354.0 501.5Q382 495 404.0 482.5Q426 470 441.5 450.5Q457 431 465.5 405.5Q474 380 474 348V106Q474 53 442.5 27.0Q411 1 360.5 -7.0Q310 -15 252 -15Z"/><path transform="translate(155.25,280.00) scale(0.01500,-0.01500)" d="M152 0H80V689H152Z"/><path transform="translate(163.28,280.00) scale(0.01500,-0.01500)" d="M116 232V312H195V232Z"/><path transform="translate(172.49,280.00) scale(0.01500,-0.01500)" d="M221 -15Q167 -15 130.5 -4.0Q94 7 55 27V103Q86 86 110.0 74.0Q134 62 159.0 56.5Q184 51 216 51Q266 51 297.5 73.0Q329 95 329 130Q329 158 313.5 173.0Q298 188 274.0 198.0Q250 208 224 219Q195 227 165.5 236.5Q136 246 111.5 261.5Q87 277 72.0 301.5Q57 326 57 365Q57 403 72.5 430.0Q88 457 113.0 474.5Q138 492 169.0 500.0Q200 508 231 508Q276 508 308.0 496.0Q340 484 374 469V397Q336 417 306.0 429.5Q276 442 235 442Q194 442 161.5 425.5Q129 409 129 375Q129 347 145.5 330.5Q162 314 189.0 304.5Q216 295 247 286Q272 278 299.0 268.5Q326 259 349.0 243.5Q372 228 386.5 203.0Q401 178 401 139Q401 86 374.0 51.5Q347 17 305.5 1.0Q264 -15 221 -15Z"/><path transform="translate(179.43,280.00) scale(0.01500,-0.01500)" d="M286 -15Q215 -15 163.0 14.5Q111 44 83.0 103.0Q55 162 55 250Q55 379 113.5 443.5Q172 508 274 508Q354 508 402.5 472.0Q451 436 472.0 375.0Q493 314 492 237H91L96 303H445L417 293Q414 368 379.5 405.0Q345 442 274 442Q225 442 192.5 424.0Q160 406 144.0 361.5Q128 317 128 237Q128 146 170.5 98.5Q213 51 290 51Q327 51 358.0 56.5Q389 62 415.0 72.0Q441 82 461 94V20Q425 3 381.5 -6.0Q338 -15 286 -15Z"/><path transform="translate(187.74,280.00) scale(0.01500,-0.01500)" d="M289 -8Q249 -8 207.5 2.5Q166 13 131.5 40.5Q97 68 76.0 119.0Q55 170 55 250Q55 330 76.0 380.5Q97 431 131.5 459.0Q166 487 207.5 497.5Q249 508 289 508Q327 508 364.5 501.0Q402 494 437 480V411Q404 425 369.0 432.0Q334 439 297 439Q208 439 167.5 394.0Q127 349 127 250Q127 150 167.5 105.5Q208 61 297 61Q334 61 369.0 68.0Q404 75 437 89V19Q402 6 364.5 -1.0Q327 -8 289 -8Z"/><path transform="translate(195.22,280.00) scale(0.01500,-0.01500)" d="M289 -15Q223 -15 176.0 8.0Q129 31 104.5 75.0Q80 119 80 183V499H152V199Q152 123 185.5 87.5Q219 52 289 52Q359 52 392.5 87.5Q426 123 426 199V499H498V183Q498 88 443.5 36.5Q389 -15 289 -15Z"/><path transform="translate(203.99,280.00) scale(0.01500,-0.01500)" d="M80 0V459Q92 464 126.5 476.0Q161 488 209.5 498.0Q258 508 310 508Q318 508 326.0 506.0Q334 504 342 502V438Q316 441 291.5 441.0Q267 441 244.0 438.5Q221 436 198.0 432.0Q175 428 152 424V0Z"/><path transform="translate(209.22,280.00) scale(0.01500,-0.01500)" d="M286 -15Q215 -15 163.0 14.5Q111 44 83.0 103.0Q55 162 55 250Q55 379 113.5 443.5Q172 508 274 508Q354 508 402.5 472.0Q451 436 472.0 375.0Q493 314 492 237H91L96 303H445L417 293Q414 368 379.5 405.0Q345 442 274 442Q225 442 192.5 424.0Q160 406 144.0 361.5Q128 317 128 237Q128 146 170.5 98.5Q213 51 290 51Q327 51 358.0 56.5Q389 62 415.0 72.0Q441 82 461 94V20Q425 3 381.5 -6.0Q338 -15 286 -15Z"/><path transform="translate(217.52,280.00) scale(0.01500,-0.01500)" d="M79 263V333H384V263Z"/><path transform="translate(224.58,280.00) scale(0.01500,-0.01500)" d="M277 -15Q238 -15 202.5 -10.5Q167 -6 139.5 5.5Q112 17 96.0 36.0Q80 55 80 85V710H152V442L127 467Q147 477 175.5 486.0Q204 495 234.0 501.0Q264 507 286 507Q402 507 458.0 439.5Q514 372 514 256Q514 170 491.0 116.5Q468 63 432.5 34.5Q397 6 356.0 -4.5Q315 -15 277 -15ZM270 51Q341 51 377.0 80.0Q413 109 425.5 155.5Q438 202 438 256Q438 311 422.5 352.5Q407 394 374.0 417.5Q341 441 286 441Q255 441 219.0 432.5Q183 424 152 406V102Q152 80 171.5 69.0Q191 58 218.5 54.5Q246 51 270 51Z"/><path transform="translate(232.69,280.00) scale(0.01500,-0.01500)" d="M134 -193Q119 -193 107.0 -190.0Q95 -187 87 -184V-118Q94 -121 105.0 -124.0Q116 -127 130 -127Q164 -127 185.0 -108.0Q206 -89 220.5 -57.0Q235 -25 247 14V-15L35 499H117L283 73H268L433 499H505L291 -49Q268 -108 240.5 -139.0Q213 -170 185.5 -181.5Q158 -193 134 -193Z"/><path transform="translate(240.89,280.00) scale(0.01500,-0.01500)" d="M79 263V333H384V263Z"/><path transform="translate(247.95,280.00) scale(0.01500,-0.01500)" d="M287 -15Q251 -15 211.0 -4.5Q171 6 135.5 34.5Q100 63 77.5 116.5Q55 170 55 256Q55 372 111.5 439.5Q168 507 283 507Q305 507 335.0 501.0Q365 495 394.0 486.0Q423 477 442 467L417 442V710H489V86Q489 58 469.5 38.5Q450 19 419.0 7.5Q388 -4 353.0 -9.5Q318 -15 287 -15ZM288 51Q340 51 378.5 63.0Q417 75 417 93V406Q386 424 350.5 432.5Q315 441 283 441Q229 441 195.5 417.5Q162 394 146.5 352.5Q131 311 131 256Q131 202 143.0 155.5Q155 109 189.0 80.0Q223 51 288 51Z"/><path transform="translate(256.58,280.00) scale(0.01500,-0.01500)" d="M286 -15Q215 -15 163.0 14.5Q111 44 83.0 103.0Q55 162 55 250Q55 379 113.5 443.5Q172 508 274 508Q354 508 402.5 472.0Q451 436 472.0 375.0Q493 314 492 237H91L96 303H445L417 293Q414 368 379.5 405.0Q345 442 274 442Q225 442 192.5 424.0Q160 406 144.0 361.5Q128 317 128 237Q128 146 170.5 98.5Q213 51 290 51Q327 51 358.0 56.5Q389 62 415.0 72.0Q441 82 461 94V20Q425 3 381.5 -6.0Q338 -15 286 -15Z"/><path transform="translate(264.89,280.00) scale(0.01500,-0.01500)" d="M126 0V433H40V499H126V526Q126 581 138.5 615.5Q151 650 171.0 669.5Q191 689 213.0 697.5Q235 706 255.0 707.5Q275 709 287 709Q301 709 313.0 707.5Q325 706 335 703V639Q328 641 319.0 642.0Q310 643 299 643Q282 643 264.0 641.0Q246 639 231.0 628.5Q216 618 207.0 594.5Q198 571 198 527V499H335V433H198V0Z"/><path transform="translate(270.61,280.00) scale(0.01500,-0.01500)" d="M252 -15Q219 -15 185.5 -8.0Q152 -1 123.5 16.0Q95 33 77.5 62.5Q60 92 60 137Q60 199 83.5 236.5Q107 274 148.5 290.5Q190 307 244 307Q285 307 315.0 302.0Q345 297 368.5 287.5Q392 278 411 266L425 200Q402 217 358.5 229.5Q315 242 263 242Q200 242 166.0 218.0Q132 194 132 148Q132 111 152.5 89.0Q173 67 204.5 58.0Q236 49 269 49Q334 49 367.5 58.5Q401 68 401 102V331Q401 389 367.0 416.0Q333 443 270 443Q230 443 185.5 431.5Q141 420 109 395V467Q140 487 192.0 497.5Q244 508 293 508Q326 508 354.0 501.5Q382 495 404.0 482.5Q426 470 441.5 450.5Q457 431 465.5 405.5Q474 380 474 348V106Q474 53 442.5 27.0Q411 1 360.5 -7.0Q310 -15 252 -15Z"/><path transform="translate(279.02,280.00) scale(0.01500,-0.01500)" d="M289 -15Q223 -15 176.0 8.0Q129 31 104.5 75.0Q80 119 80 183V499H152V199Q152 123 185.5 87.5Q219 52 289 52Q359 52 392.5 87.5Q426 123 426 199V499H498V183Q498 88 443.5 36.5Q389 -15 289 -15Z"/><path transform="translate(287.79,280.00) scale(0.01500,-0.01500)" d="M152 0H80V689H152Z"/><path transform="translate(291.37,280.00) scale(0.01500,-0.01500)" d="M237 -8Q184 -8 148.0 24.5Q112 57 112 121V433H25V499H112V640H184V499H313V433H184V144Q184 102 197.0 81.0Q210 60 250 60Q268 60 285.0 63.5Q302 67 313 72V4Q299 -1 277.5 -4.5Q256 -8 237 -8Z"/><path transform="translate(301.37,280.00) scale(0.01500,-0.01500)" d="M116 232V312H195V232Z"/><path transform="translate(310.58,280.00) scale(0.01500,-0.01500)" d="M283 -15Q206 -15 155.5 15.5Q105 46 80.0 102.5Q55 159 55 236Q55 322 78.0 375.5Q101 429 137.5 457.5Q174 486 217.5 496.5Q261 507 302 507Q349 507 391.5 494.5Q434 482 461.5 455.0Q489 428 489 383V-21Q489 -51 480.0 -82.0Q471 -113 447.5 -139.5Q424 -166 381.5 -182.0Q339 -198 272 -198Q229 -198 193.0 -190.0Q157 -182 130 -175V-107Q146 -111 166.5 -116.5Q187 -122 211.5 -126.0Q236 -130 264 -130Q332 -130 364.5 -113.5Q397 -97 407.0 -72.5Q417 -48 417 -23V50L442 25Q423 15 394.0 6.0Q365 -3 335.0 -9.0Q305 -15 283 -15ZM283 51Q315 51 350.5 59.5Q386 68 417 86V373Q417 401 401.5 415.5Q386 430 360.0 435.5Q334 441 304 441Q231 441 194.0 412.5Q157 384 144.0 337.0Q131 290 131 236Q131 154 166.0 102.5Q201 51 283 51Z"/><path transform="translate(319.22,280.00) scale(0.01500,-0.01500)" d="M285 -15Q168 -15 111.5 54.5Q55 124 55 248Q55 378 114.5 443.0Q174 508 283 508Q364 508 415.0 475.5Q466 443 490.0 384.5Q514 326 514 248Q514 125 454.5 55.0Q395 -15 285 -15ZM284 51Q345 51 379.0 77.5Q413 104 427.5 148.5Q442 193 442 248Q442 307 427.0 350.5Q412 394 377.5 418.0Q343 442 284 442Q224 442 190.0 416.0Q156 390 141.5 346.5Q127 303 127 248Q127 160 162.0 105.5Q197 51 284 51Z"/><path transform="translate(327.33,280.00) scale(0.01500,-0.01500)" d="M246 0 35 499H112L296 62L280 58L459 499H531L319 0Z"/><path transform="translate(335.39,280.00) scale(0.01500,-0.01500)" d="M286 -15Q215 -15 163.0 14.5Q111 44 83.0 103.0Q55 162 55 250Q55 379 113.5 443.5Q172 508 274 508Q354 508 402.5 472.0Q451 436 472.0 375.0Q493 314 492 237H91L96 303H445L417 293Q414 368 379.5 405.0Q345 442 274 442Q225 442 192.5 424.0Q160 406 144.0 361.5Q128 317 128 237Q128 146 170.5 98.5Q213 51 290 51Q327 51 358.0 56.5Q389 62 415.0 72.0Q441 82 461 94V20Q425 3 381.5 -6.0Q338 -15 286 -15Z"/><path transform="translate(343.70,280.00) scale(0.01500,-0.01500)" d="M80 0V459Q92 464 126.5 476.0Q161 488 209.5 498.0Q258 508 310 508Q318 508 326.0 506.0Q334 504 342 502V438Q316 441 291.5 441.0Q267 441 244.0 438.5Q221 436 198.0 432.0Q175 428 152 424V0Z"/><path transform="translate(349.45,280.00) scale(0.01500,-0.01500)" d="M80 459Q104 471 129.5 480.5Q155 490 181.5 496.0Q208 502 235.5 505.0Q263 508 291 508Q364 508 407.0 486.5Q450 465 469.5 424.0Q489 383 489 325V0H417V325Q417 343 412.5 363.0Q408 383 395.0 401.5Q382 420 355.0 431.5Q328 443 283 443Q252 443 219.0 438.0Q186 433 152 423V0H80Z"/><path transform="translate(358.09,280.00) scale(0.01500,-0.01500)" d="M286 -15Q215 -15 163.0 14.5Q111 44 83.0 103.0Q55 162 55 250Q55 379 113.5 443.5Q172 508 274 508Q354 508 402.5 472.0Q451 436 472.0 375.0Q493 314 492 237H91L96 303H445L417 293Q414 368 379.5 405.0Q345 442 274 442Q225 442 192.5 424.0Q160 406 144.0 361.5Q128 317 128 237Q128 146 170.5 98.5Q213 51 290 51Q327 51 358.0 56.5Q389 62 415.0 72.0Q441 82 461 94V20Q425 3 381.5 -6.0Q338 -15 286 -15Z"/><path transform="translate(366.39,280.00) scale(0.01500,-0.01500)" d="M287 -15Q251 -15 211.0 -4.5Q171 6 135.5 34.5Q100 63 77.5 116.5Q55 170 55 256Q55 372 111.5 439.5Q168 507 283 507Q305 507 335.0 501.0Q365 495 394.0 486.0Q423 477 442 467L417 442V710H489V86Q489 58 469.5 38.5Q450 19 419.0 7.5Q388 -4 353.0 -9.5Q318 -15 287 -15ZM288 51Q340 51 378.5 63.0Q417 75 417 93V406Q386 424 350.5 432.5Q315 441 283 441Q229 441 195.5 417.5Q162 394 146.5 352.5Q131 311 131 256Q131 202 143.0 155.5Q155 109 189.0 80.0Q223 51 288 51Z"/><path transform="translate(379.48,280.00) scale(0.01500,-0.01500)" d="M369 -10Q267 -10 198.0 28.5Q129 67 94.5 143.5Q60 220 60 334Q60 448 94.5 524.0Q129 600 198.0 638.0Q267 676 369 676Q424 676 477.0 665.0Q530 654 579 631V556Q532 577 481.0 592.5Q430 608 377 608Q293 608 238.5 578.5Q184 549 158.0 488.5Q132 428 132 334Q132 240 158.0 179.0Q184 118 238.5 88.5Q293 59 377 59Q417 59 455.0 65.0Q493 71 530 83V273H369V343H602V42Q547 16 489.0 3.0Q431 -10 369 -10Z"/><path transform="translate(389.88,280.00) scale(0.01500,-0.01500)" d="M286 -15Q215 -15 163.0 14.5Q111 44 83.0 103.0Q55 162 55 250Q55 379 113.5 443.5Q172 508 274 508Q354 508 402.5 472.0Q451 436 472.0 375.0Q493 314 492 237H91L96 303H445L417 293Q414 368 379.5 405.0Q345 442 274 442Q225 442 192.5 424.0Q160 406 144.0 361.5Q128 317 128 237Q128 146 170.5 98.5Q213 51 290 51Q327 51 358.0 56.5Q389 62 415.0 72.0Q441 82 461 94V20Q425 3 381.5 -6.0Q338 -15 286 -15Z"/><path transform="translate(398.19,280.00) scale(0.01500,-0.01500)" d="M80 459Q104 471 129.5 480.5Q155 490 181.5 496.0Q208 502 235.5 505.0Q263 508 291 508Q364 508 407.0 486.5Q450 465 469.5 424.0Q489 383 489 325V0H417V325Q417 343 412.5 363.0Q408 383 395.0 401.5Q382 420 355.0 431.5Q328 443 283 443Q252 443 219.0 438.0Q186 433 152 423V0H80Z"/><path transform="translate(406.83,280.00) scale(0.01500,-0.01500)" d="M20 0 286 667H358L623 0H546L315 600L330 602L98 0ZM137 208 168 277H495L500 208Z"/><path transform="translate(416.57,280.00) scale(0.01500,-0.01500)" d="M85 0V667H157V0Z"/><path transform="translate(424.75,280.00) scale(0.01500,-0.01500)" d="M116 232V312H195V232Z"/><path transform="translate(433.97,280.00) scale(0.01500,-0.01500)" d="M277 -15Q238 -15 202.5 -10.5Q167 -6 139.5 5.5Q112 17 96.0 36.0Q80 55 80 85V710H152V442L127 467Q147 477 175.5 486.0Q204 495 234.0 501.0Q264 507 286 507Q402 507 458.0 439.5Q514 372 514 256Q514 170 491.0 116.5Q468 63 432.5 34.5Q397 6 356.0 -4.5Q315 -15 277 -15ZM270 51Q341 51 377.0 80.0Q413 109 425.5 155.5Q438 202 438 256Q438 311 422.5 352.5Q407 394 374.0 417.5Q341 441 286 441Q255 441 219.0 432.5Q183 424 152 406V102Q152 80 171.5 69.0Q191 58 218.5 54.5Q246 51 270 51Z"/><path transform="translate(442.60,280.00) scale(0.01500,-0.01500)" d="M289 -15Q223 -15 176.0 8.0Q129 31 104.5 75.0Q80 119 80 183V499H152V199Q152 123 185.5 87.5Q219 52 289 52Q359 52 392.5 87.5Q426 123 426 199V499H498V183Q498 88 443.5 36.5Q389 -15 289 -15Z"/><path transform="translate(451.37,280.00) scale(0.01500,-0.01500)" d="M84 0V499H156V0ZM80 588V667H160V588Z"/><path transform="translate(455.07,280.00) scale(0.01500,-0.01500)" d="M152 0H80V689H152Z"/><path transform="translate(458.65,280.00) scale(0.01500,-0.01500)" d="M237 -8Q184 -8 148.0 24.5Q112 57 112 121V433H25V499H112V640H184V499H313V433H184V144Q184 102 197.0 81.0Q210 60 250 60Q268 60 285.0 63.5Q302 67 313 72V4Q299 -1 277.5 -4.5Q256 -8 237 -8Z"/><path transform="translate(468.65,280.00) scale(0.01500,-0.01500)" d="M285 -15Q168 -15 111.5 54.5Q55 124 55 248Q55 378 114.5 443.0Q174 508 283 508Q364 508 415.0 475.5Q466 443 490.0 384.5Q514 326 514 248Q514 125 454.5 55.0Q395 -15 285 -15ZM284 51Q345 51 379.0 77.5Q413 104 427.5 148.5Q442 193 442 248Q442 307 427.0 350.5Q412 394 377.5 418.0Q343 442 284 442Q224 442 190.0 416.0Q156 390 141.5 346.5Q127 303 127 248Q127 160 162.0 105.5Q197 51 284 51Z"/><path transform="translate(477.28,280.00) scale(0.01500,-0.01500)" d="M80 459Q104 471 129.5 480.5Q155 490 181.5 496.0Q208 502 235.5 505.0Q263 508 291 508Q364 508 407.0 486.5Q450 465 469.5 424.0Q489 383 489 325V0H417V325Q417 343 412.5 363.0Q408 383 395.0 401.5Q382 420 355.0 431.5Q328 443 283 443Q252 443 219.0 438.0Q186 433 152 423V0H80Z"/><path transform="translate(490.37,280.00) scale(0.01500,-0.01500)" d="M85 0V667H494V599H157V369H453V299H157V0Z"/><path transform="translate(498.55,280.00) scale(0.01500,-0.01500)" d="M84 0V499H156V0ZM80 588V667H160V588Z"/><path transform="translate(502.25,280.00) scale(0.01500,-0.01500)" d="M80 0V459Q92 464 126.5 476.0Q161 488 209.5 498.0Q258 508 310 508Q318 508 326.0 506.0Q334 504 342 502V438Q316 441 291.5 441.0Q267 441 244.0 438.5Q221 436 198.0 432.0Q175 428 152 424V0Z"/><path transform="translate(507.48,280.00) scale(0.01500,-0.01500)" d="M286 -15Q215 -15 163.0 14.5Q111 44 83.0 103.0Q55 162 55 250Q55 379 113.5 443.5Q172 508 274 508Q354 508 402.5 472.0Q451 436 472.0 375.0Q493 314 492 237H91L96 303H445L417 293Q414 368 379.5 405.0Q345 442 274 442Q225 442 192.5 424.0Q160 406 144.0 361.5Q128 317 128 237Q128 146 170.5 98.5Q213 51 290 51Q327 51 358.0 56.5Q389 62 415.0 72.0Q441 82 461 94V20Q425 3 381.5 -6.0Q338 -15 286 -15Z"/><path transform="translate(515.79,280.00) scale(0.01500,-0.01500)" d="M126 0V433H40V499H126V526Q126 581 138.5 615.5Q151 650 171.0 669.5Q191 689 213.0 697.5Q235 706 255.0 707.5Q275 709 287 709Q301 709 313.0 707.5Q325 706 335 703V639Q328 641 319.0 642.0Q310 643 299 643Q282 643 264.0 641.0Q246 639 231.0 628.5Q216 618 207.0 594.5Q198 571 198 527V499H335V433H198V0ZM507 0H435V689H507Z"/><path transform="translate(524.69,280.00) scale(0.01500,-0.01500)" d="M134 -193Q119 -193 107.0 -190.0Q95 -187 87 -184V-118Q94 -121 105.0 -124.0Q116 -127 130 -127Q164 -127 185.0 -108.0Q206 -89 220.5 -57.0Q235 -25 247 14V-15L35 499H117L283 73H268L433 499H505L291 -49Q268 -108 240.5 -139.0Q213 -170 185.5 -181.5Q158 -193 134 -193Z"/><path transform="translate(537.34,280.00) scale(0.01500,-0.01500)" d="M20 0 286 667H358L623 0H546L315 600L330 602L98 0ZM137 208 168 277H495L500 208Z"/><path transform="translate(547.09,280.00) scale(0.01500,-0.01500)" d="M283 -15Q206 -15 155.5 15.5Q105 46 80.0 102.5Q55 159 55 236Q55 322 78.0 375.5Q101 429 137.5 457.5Q174 486 217.5 496.5Q261 507 302 507Q349 507 391.5 494.5Q434 482 461.5 455.0Q489 428 489 383V-21Q489 -51 480.0 -82.0Q471 -113 447.5 -139.5Q424 -166 381.5 -182.0Q339 -198 272 -198Q229 -198 193.0 -190.0Q157 -182 130 -175V-107Q146 -111 166.5 -116.5Q187 -122 211.5 -126.0Q236 -130 264 -130Q332 -130 364.5 -113.5Q397 -97 407.0 -72.5Q417 -48 417 -23V50L442 25Q423 15 394.0 6.0Q365 -3 335.0 -9.0Q305 -15 283 -15ZM283 51Q315 51 350.5 59.5Q386 68 417 86V373Q417 401 401.5 415.5Q386 430 360.0 435.5Q334 441 304 441Q231 441 194.0 412.5Q157 384 144.0 337.0Q131 290 131 236Q131 154 166.0 102.5Q201 51 283 51Z"/><path transform="translate(555.72,280.00) scale(0.01500,-0.01500)" d="M286 -15Q215 -15 163.0 14.5Q111 44 83.0 103.0Q55 162 55 250Q55 379 113.5 443.5Q172 508 274 508Q354 508 402.5 472.0Q451 436 472.0 375.0Q493 314 492 237H91L96 303H445L417 293Q414 368 379.5 405.0Q345 442 274 442Q225 442 192.5 424.0Q160 406 144.0 361.5Q128 317 128 237Q128 146 170.5 98.5Q213 51 290 51Q327 51 358.0 56.5Q389 62 415.0 72.0Q441 82 461 94V20Q425 3 381.5 -6.0Q338 -15 286 -15Z"/><path transform="translate(564.03,280.00) scale(0.01500,-0.01500)" d="M80 459Q104 471 129.5 480.5Q155 490 181.5 496.0Q208 502 235.5 505.0Q263 508 291 508Q364 508 407.0 486.5Q450 465 469.5 424.0Q489 383 489 325V0H417V325Q417 343 412.5 363.0Q408 383 395.0 401.5Q382 420 355.0 431.5Q328 443 283 443Q252 443 219.0 438.0Q186 433 152 423V0H80Z"/><path transform="translate(572.66,280.00) scale(0.01500,-0.01500)" d="M237 -8Q184 -8 148.0 24.5Q112 57 112 121V433H25V499H112V640H184V499H313V433H184V144Q184 102 197.0 81.0Q210 60 250 60Q268 60 285.0 63.5Q302 67 313 72V4Q299 -1 277.5 -4.5Q256 -8 237 -8Z"/><path transform="translate(578.21,280.00) scale(0.01500,-0.01500)" d="M84 0V499H156V0ZM80 588V667H160V588Z"/><path transform="translate(581.91,280.00) scale(0.01500,-0.01500)" d="M289 -8Q249 -8 207.5 2.5Q166 13 131.5 40.5Q97 68 76.0 119.0Q55 170 55 250Q55 330 76.0 380.5Q97 431 131.5 459.0Q166 487 207.5 497.5Q249 508 289 508Q327 508 364.5 501.0Q402 494 437 480V411Q404 425 369.0 432.0Q334 439 297 439Q208 439 167.5 394.0Q127 349 127 250Q127 150 167.5 105.5Q208 61 297 61Q334 61 369.0 68.0Q404 75 437 89V19Q402 6 364.5 -1.0Q327 -8 289 -8Z"/></g>
</svg>