<svg xmlns="http://www.w3.org/2000/svg" width="860" height="360" viewBox="0 0 860 360" role="img" aria-label="Hexagonal ports and adapters"><rect width="860" height="360" fill="#ffffff"/><rect x="0" y="0" width="860" height="6" fill="#06b6d4"/><text x="430" y="34" font-family="-apple-system,'Segoe UI',Helvetica,Arial,sans-serif" font-size="18" font-weight="800" fill="#0a2730" text-anchor="middle">Hexagonal Ports &amp; Adapters</text><rect x="330" y="70" width="200" height="70" rx="10" fill="#fff7e6" stroke="#f6a821" stroke-width="1.5"/><text x="430.0" y="101.0" font-family="-apple-system,'Segoe UI',Helvetica,Arial,sans-serif" font-size="13.5" font-weight="700" fill="#0a2730" text-anchor="middle">AutoML Core</text><text x="430.0" y="119.0" font-family="-apple-system,'Segoe UI',Helvetica,Arial,sans-serif" font-size="11" font-weight="500" fill="#5b7c84" text-anchor="middle">library-agnostic</text><rect x="40" y="70" width="200" height="64" rx="10" fill="#f2fbfd" stroke="#bfe6ee" stroke-width="1.5"/><text x="140.0" y="98.0" font-family="-apple-system,'Segoe UI',Helvetica,Arial,sans-serif" font-size="13.5" font-weight="700" fill="#0a2730" text-anchor="middle">DatasetLoaderPort</text><text x="140.0" y="116.0" font-family="-apple-system,'Segoe UI',Helvetica,Arial,sans-serif" font-size="11" font-weight="500" fill="#5b7c84" text-anchor="middle">sklearn · OpenML · HF</text><line x1="240" y1="102" x2="323.0017277551787" y2="100.15551716099603" stroke="#3aa6bd" stroke-width="2"/><polygon points="330,100.0 323.0950380517763,104.3544805078888 322.9084174585811,95.95655381410326" fill="#3aa6bd"/><rect x="40" y="170" width="200" height="64" rx="10" fill="#f2fbfd" stroke="#bfe6ee" stroke-width="1.5"/><text x="140.0" y="198.0" font-family="-apple-system,'Segoe UI',Helvetica,Arial,sans-serif" font-size="13.5" font-weight="700" fill="#0a2730" text-anchor="middle">TrainerPort</text><text x="140.0" y="216.0" font-family="-apple-system,'Segoe UI',Helvetica,Arial,sans-serif" font-size="11" font-weight="500" fill="#5b7c84" text-anchor="middle">RF · boosting · MLP</text><line x1="240" y1="202" x2="325.1049409117539" y2="115.00383817909604" stroke="#3aa6bd" stroke-width="2"/><polygon points="330,110.0 328.1072438192115,117.9408736320437 322.10263800429624,112.06680272614837" fill="#3aa6bd"/><rect x="40" y="270" width="200" height="64" rx="10" fill="#f2fbfd" stroke="#bfe6ee" stroke-width="1.5"/><text x="140.0" y="298.0" font-family="-apple-system,'Segoe UI',Helvetica,Arial,sans-serif" font-size="13.5" font-weight="700" fill="#0a2730" text-anchor="middle">SearchPolicyPort</text><text x="140.0" y="316.0" font-family="-apple-system,'Segoe UI',Helvetica,Arial,sans-serif" font-size="11" font-weight="500" fill="#5b7c84" text-anchor="middle">default · Optuna</text><line x1="240" y1="302" x2="326.8971163947127" y2="126.27472017958088" stroke="#3aa6bd" stroke-width="2"/><polygon points="330,120.0 330.66194850246126,128.13645034275322 323.1322842869642,124.41299001640853" fill="#3aa6bd"/><rect x="620" y="70" width="200" height="64" rx="10" fill="#f2fbfd" stroke="#bfe6ee" stroke-width="1.5"/><text x="720.0" y="98.0" font-family="-apple-system,'Segoe UI',Helvetica,Arial,sans-serif" font-size="13.5" font-weight="700" fill="#0a2730" text-anchor="middle">TrackerPort</text><text x="720.0" y="116.0" font-family="-apple-system,'Segoe UI',Helvetica,Arial,sans-serif" font-size="11" font-weight="500" fill="#5b7c84" text-anchor="middle">MLflow · noop</text><line x1="620" y1="102" x2="536.9982722448212" y2="100.15551716099603" stroke="#3aa6bd" stroke-width="2"/><polygon points="530,100.0 537.0915825414188,95.95655381410326 536.9049619482237,104.3544805078888" fill="#3aa6bd"/><rect x="620" y="170" width="200" height="64" rx="10" fill="#f2fbfd" stroke="#bfe6ee" stroke-width="1.5"/><text x="720.0" y="198.0" font-family="-apple-system,'Segoe UI',Helvetica,Arial,sans-serif" font-size="13.5" font-weight="700" fill="#0a2730" text-anchor="middle">ModelServerPort</text><text x="720.0" y="216.0" font-family="-apple-system,'Segoe UI',Helvetica,Arial,sans-serif" font-size="11" font-weight="500" fill="#5b7c84" text-anchor="middle">local · BentoML</text><line x1="620" y1="202" x2="534.8950590882462" y2="115.00383817909604" stroke="#3aa6bd" stroke-width="2"/><polygon points="530,110.0 537.8973619957038,112.06680272614837 531.8927561807885,117.9408736320437" fill="#3aa6bd"/><rect x="620" y="270" width="200" height="64" rx="10" fill="#f2fbfd" stroke="#bfe6ee" stroke-width="1.5"/><text x="720.0" y="298.0" font-family="-apple-system,'Segoe UI',Helvetica,Arial,sans-serif" font-size="13.5" font-weight="700" fill="#0a2730" text-anchor="middle">FeatureEngineerPort</text><text x="720.0" y="316.0" font-family="-apple-system,'Segoe UI',Helvetica,Arial,sans-serif" font-size="11" font-weight="500" fill="#5b7c84" text-anchor="middle">GenAI (CAAFE)</text><line x1="620" y1="302" x2="533.1028836052873" y2="126.27472017958088" stroke="#3aa6bd" stroke-width="2"/><polygon points="530,120.0 536.8677157130358,124.41299001640853 529.3380514975388,128.13645034275322" fill="#3aa6bd"/><text x="846" y="348" font-family="-apple-system,'Segoe UI',Helvetica,Arial,sans-serif" font-size="10.5" font-weight="600" fill="#5b7c84" text-anchor="end">✦ firefly-datascience</text></svg>
